#Comment line ignore any data following # character 
#Hierarchical Translation and Rotation (.htr) file 
[Header]	
#Header keywords are followed by a single value 
FileType HTR		#Single word string
DataType HTRS		#Translation followed by rotation and scale data
FileVersion 1		#integer
NumSegments 84		#integer
NumFrames 2		#integer
DataFrameRate 30		#integer, data frame rate in this file
EulerRotationOrder ZYX
CalibrationUnits mm
RotationUnits Degrees
GlobalAxisofGravity Y
BoneLengthAxis Y
ScaleFactor 1.00
[SegmentNames&Hierarchy]
#CHILD	PARENT
MASTER GLOBAL
root MASTER
chest root
L_mid_tent01 root
R_mid_tent01 root
spine01 root
Bip01_Neck chest
L_humerus chest
R_humerus chest
weapon_bone chest
Bip01_Head Bip01_Neck
eye_left_bone Bip01_Head
eye_right_bone Bip01_Head
L_forearm L_humerus
L_front_hand L_forearm
L_weapon_bone L_forearm
L_front_hand01_01 L_front_hand
L_front_hand02_01 L_front_hand
L_front_hand03_01 L_front_hand
L_front_hand01_02 L_front_hand01_01
L_front_hand02_02 L_front_hand02_01
L_front_hand03_02 L_front_hand03_01
R_forearm R_humerus
R_front_hand R_forearm
R_weapon_bone R_forearm
R_front_hand01_01 R_front_hand
R_front_hand02_01 R_front_hand
R_front_hand03_01 R_front_hand
R_front_hand01_02 R_front_hand01_01
R_front_hand02_02 R_front_hand02_01
R_front_hand03_02 R_front_hand03_01
null_rope01_connect L_mid_tent01
Rope1_Seg01 null_rope01_connect
Rope1_Seg02 Rope1_Seg01
Rope1_Seg03 Rope1_Seg02
Rope1_Seg04 Rope1_Seg03
Rope1_Seg05 Rope1_Seg04
Rope1_Seg06 Rope1_Seg05
Rope1_Seg07 Rope1_Seg06
Rope1_Seg09 Rope1_Seg07
L_mid_hand01 Rope1_Seg09
L_mid_hand02 Rope1_Seg09
L_mid_hand03 Rope1_Seg09
null_rope02_connect R_mid_tent01
Rope2_Seg01 null_rope02_connect
Rope2_Seg02 Rope2_Seg01
Rope2_Seg03 Rope2_Seg02
Rope2_Seg04 Rope2_Seg03
Rope2_Seg05 Rope2_Seg04
Rope2_Seg06 Rope2_Seg05
Rope2_Seg07 Rope2_Seg06
Rope2_Seg09 Rope2_Seg07
R_mid_hand01 Rope2_Seg09
R_mid_hand02 Rope2_Seg09
R_mid_hand03 Rope2_Seg09
spine02 spine01
spine03 spine02
pelvis spine03
null_rope03_connect pelvis
null_rope04_connect pelvis
Rope3_Seg01 null_rope03_connect
Rope3_Seg02 Rope3_Seg01
Rope3_Seg03 Rope3_Seg02
Rope3_Seg04 Rope3_Seg03
Rope3_Seg05 Rope3_Seg04
Rope3_Seg06 Rope3_Seg05
Rope3_Seg07 Rope3_Seg06
Rope3_Seg08 Rope3_Seg07
Rope3_Seg09 Rope3_Seg08
R_rear_hand01 Rope3_Seg09
R_rear_hand02 Rope3_Seg09
R_rear_hand03 Rope3_Seg09
Rope4_Seg01 null_rope04_connect
Rope4_Seg02 Rope4_Seg01
Rope4_Seg03 Rope4_Seg02
Rope4_Seg04 Rope4_Seg03
Rope4_Seg05 Rope4_Seg04
Rope4_Seg06 Rope4_Seg05
Rope4_Seg07 Rope4_Seg06
Rope4_Seg08 Rope4_Seg07
Rope4_Seg09 Rope4_Seg08
L_rear_hand01 Rope4_Seg09
L_rear_hand02 Rope4_Seg09
L_rear_hand03 Rope4_Seg09
[BasePosition]
#SegmentName Tx, Ty, Tz, Rx, Ry, Rz, BoneLength
MASTER 0.000000 0.000000 0.000000 -90.000000 0.000000 0.000000 10.000000 
root 0.000000 0.000000 0.000000 0.000000 0.000000 0.000000 10.000000 
chest 0.000000 0.000000 0.000000 0.000000 0.000000 0.000000 10.000000 
L_mid_tent01 0.000000 0.000000 0.000000 0.000000 0.000000 0.000000 10.000000 
R_mid_tent01 0.000000 0.000000 0.000000 0.000000 0.000000 0.000000 10.000000 
spine01 0.000000 0.000000 0.000000 0.000000 0.000000 0.000000 10.000000 
Bip01_Neck 0.000000 0.000000 0.000000 0.000000 0.000000 0.000000 10.000000 
L_humerus 0.000000 0.000000 0.000000 0.000000 0.000000 0.000000 10.000000 
R_humerus 0.000000 0.000000 0.000000 0.000000 0.000000 0.000000 10.000000 
weapon_bone 0.000000 0.000000 0.000000 0.000000 0.000000 0.000000 10.000000 
Bip01_Head 0.000000 0.000000 0.000000 0.000000 0.000000 0.000000 10.000000 
eye_left_bone 0.000000 0.000000 0.000000 0.000000 0.000000 0.000000 10.000000 
eye_right_bone 0.000000 0.000000 0.000000 0.000000 0.000000 0.000000 10.000000 
L_forearm 0.000000 0.000000 0.000000 0.000000 0.000000 0.000000 10.000000 
L_front_hand 0.000000 0.000000 0.000000 0.000000 0.000000 0.000000 10.000000 
L_weapon_bone 0.000000 0.000000 0.000000 0.000000 0.000000 0.000000 10.000000 
L_front_hand01_01 0.000000 0.000000 0.000000 0.000000 0.000000 0.000000 10.000000 
L_front_hand02_01 0.000000 0.000000 0.000000 0.000000 0.000000 0.000000 10.000000 
L_front_hand03_01 0.000000 0.000000 0.000000 0.000000 0.000000 0.000000 10.000000 
L_front_hand01_02 0.000000 0.000000 0.000000 0.000000 0.000000 0.000000 10.000000 
L_front_hand02_02 0.000000 0.000000 0.000000 0.000000 0.000000 0.000000 10.000000 
L_front_hand03_02 0.000000 0.000000 0.000000 0.000000 0.000000 0.000000 10.000000 
R_forearm 0.000000 0.000000 0.000000 0.000000 0.000000 0.000000 10.000000 
R_front_hand 0.000000 0.000000 0.000000 0.000000 0.000000 0.000000 10.000000 
R_weapon_bone 0.000000 0.000000 0.000000 0.000000 0.000000 0.000000 10.000000 
R_front_hand01_01 0.000000 0.000000 0.000000 0.000000 0.000000 0.000000 10.000000 
R_front_hand02_01 0.000000 0.000000 0.000000 0.000000 0.000000 0.000000 10.000000 
R_front_hand03_01 0.000000 0.000000 0.000000 0.000000 0.000000 0.000000 10.000000 
R_front_hand01_02 0.000000 0.000000 0.000000 0.000000 0.000000 0.000000 10.000000 
R_front_hand02_02 0.000000 0.000000 0.000000 0.000000 0.000000 0.000000 10.000000 
R_front_hand03_02 0.000000 0.000000 0.000000 0.000000 0.000000 0.000000 10.000000 
null_rope01_connect 0.000000 0.000000 0.000000 0.000000 0.000000 0.000000 10.000000 
Rope1_Seg01 0.000000 0.000000 0.000000 0.000000 0.000000 0.000000 10.000000 
Rope1_Seg02 0.000000 0.000000 0.000000 0.000000 0.000000 0.000000 10.000000 
Rope1_Seg03 0.000000 0.000000 0.000000 0.000000 0.000000 0.000000 10.000000 
Rope1_Seg04 0.000000 0.000000 0.000000 0.000000 0.000000 0.000000 10.000000 
Rope1_Seg05 0.000000 0.000000 0.000000 0.000000 0.000000 0.000000 10.000000 
Rope1_Seg06 0.000000 0.000000 0.000000 0.000000 0.000000 0.000000 10.000000 
Rope1_Seg07 0.000000 0.000000 0.000000 0.000000 0.000000 0.000000 10.000000 
Rope1_Seg09 0.000000 0.000000 0.000000 0.000000 0.000000 0.000000 10.000000 
L_mid_hand01 0.000000 0.000000 0.000000 0.000000 0.000000 0.000000 10.000000 
L_mid_hand02 0.000000 0.000000 0.000000 0.000000 0.000000 0.000000 10.000000 
L_mid_hand03 0.000000 0.000000 0.000000 0.000000 0.000000 0.000000 10.000000 
null_rope02_connect 0.000000 0.000000 0.000000 0.000000 0.000000 0.000000 10.000000 
Rope2_Seg01 0.000000 0.000000 0.000000 0.000000 0.000000 0.000000 10.000000 
Rope2_Seg02 0.000000 0.000000 0.000000 0.000000 0.000000 0.000000 10.000000 
Rope2_Seg03 0.000000 0.000000 0.000000 0.000000 0.000000 0.000000 10.000000 
Rope2_Seg04 0.000000 0.000000 0.000000 0.000000 0.000000 0.000000 10.000000 
Rope2_Seg05 0.000000 0.000000 0.000000 0.000000 0.000000 0.000000 10.000000 
Rope2_Seg06 0.000000 0.000000 0.000000 0.000000 0.000000 0.000000 10.000000 
Rope2_Seg07 0.000000 0.000000 0.000000 0.000000 0.000000 0.000000 10.000000 
Rope2_Seg09 0.000000 0.000000 0.000000 0.000000 0.000000 0.000000 10.000000 
R_mid_hand01 0.000000 0.000000 0.000000 0.000000 0.000000 0.000000 10.000000 
R_mid_hand02 0.000000 0.000000 0.000000 0.000000 0.000000 0.000000 10.000000 
R_mid_hand03 0.000000 0.000000 0.000000 0.000000 0.000000 0.000000 10.000000 
spine02 0.000000 0.000000 0.000000 0.000000 0.000000 0.000000 10.000000 
spine03 0.000000 0.000000 0.000000 0.000000 0.000000 0.000000 10.000000 
pelvis 0.000000 0.000000 0.000000 0.000000 0.000000 0.000000 10.000000 
null_rope03_connect 0.000000 0.000000 0.000000 0.000000 0.000000 0.000000 10.000000 
null_rope04_connect 0.000000 0.000000 0.000000 0.000000 0.000000 0.000000 10.000000 
Rope3_Seg01 0.000000 0.000000 0.000000 0.000000 0.000000 0.000000 10.000000 
Rope3_Seg02 0.000000 0.000000 0.000000 0.000000 0.000000 0.000000 10.000000 
Rope3_Seg03 0.000000 0.000000 0.000000 0.000000 0.000000 0.000000 10.000000 
Rope3_Seg04 0.000000 0.000000 0.000000 0.000000 0.000000 0.000000 10.000000 
Rope3_Seg05 0.000000 0.000000 0.000000 0.000000 0.000000 0.000000 10.000000 
Rope3_Seg06 0.000000 0.000000 0.000000 0.000000 0.000000 0.000000 10.000000 
Rope3_Seg07 0.000000 0.000000 0.000000 0.000000 0.000000 0.000000 10.000000 
Rope3_Seg08 0.000000 0.000000 0.000000 0.000000 0.000000 0.000000 10.000000 
Rope3_Seg09 0.000000 0.000000 0.000000 0.000000 0.000000 0.000000 10.000000 
R_rear_hand01 0.000000 0.000000 0.000000 0.000000 0.000000 0.000000 10.000000 
R_rear_hand02 0.000000 0.000000 0.000000 0.000000 0.000000 0.000000 10.000000 
R_rear_hand03 0.000000 0.000000 0.000000 0.000000 0.000000 0.000000 10.000000 
Rope4_Seg01 0.000000 0.000000 0.000000 0.000000 0.000000 0.000000 10.000000 
Rope4_Seg02 0.000000 0.000000 0.000000 0.000000 0.000000 0.000000 10.000000 
Rope4_Seg03 0.000000 0.000000 0.000000 0.000000 0.000000 0.000000 10.000000 
Rope4_Seg04 0.000000 0.000000 0.000000 0.000000 0.000000 0.000000 10.000000 
Rope4_Seg05 0.000000 0.000000 0.000000 0.000000 0.000000 0.000000 10.000000 
Rope4_Seg06 0.000000 0.000000 0.000000 0.000000 0.000000 0.000000 10.000000 
Rope4_Seg07 0.000000 0.000000 0.000000 0.000000 0.000000 0.000000 10.000000 
Rope4_Seg08 0.000000 0.000000 0.000000 0.000000 0.000000 0.000000 10.000000 
Rope4_Seg09 0.000000 0.000000 0.000000 0.000000 0.000000 0.000000 10.000000 
L_rear_hand01 0.000000 0.000000 0.000000 0.000000 0.000000 0.000000 10.000000 
L_rear_hand02 0.000000 0.000000 0.000000 0.000000 0.000000 0.000000 10.000000 
L_rear_hand03 0.000000 0.000000 0.000000 0.000000 0.000000 0.000000 10.000000 
#Beginning of Data. Separated by tabs
#Fr	Tx	Ty	Tz	Rx	Ry	Rz	SF
[MASTER]
3 -116.856171 0.000018 0.000000 0.002347 0.000000 89.997704 116.856171
4 -219.967651 0.000033 0.000000 0.002347 0.000000 89.997704 219.967651
[root]
3 -62.822109 16.502304 1357.801514 -60.651691 -27.674406 179.850281 1359.354248
4 -62.822109 16.502304 1294.160645 -46.382858 -27.675303 179.849640 1295.789551
[chest]
3 -84.512650 -34.090519 0.000000 13.343531 0.648075 -179.552414 91.129311
4 -84.512650 -34.090519 0.000000 30.914089 0.239759 179.089615 91.129311
[L_mid_tent01]
3 27.378292 22.132376 -250.423813 -23.373045 18.737135 36.794228 252.886337
4 27.417650 22.109814 -250.676758 -28.566494 8.031593 23.673632 253.139099
[R_mid_tent01]
3 23.228794 24.509907 226.238495 -167.764603 -49.147419 45.828403 228.744751
4 23.228794 24.509907 226.238495 -155.772797 -45.259197 29.647505 228.744751
[spine01]
3 -0.361383 -0.195265 0.000000 -0.212536 0.631264 3.329443 0.410763
4 -0.361383 -0.195265 0.000000 0.676368 0.667461 -1.349595 0.410763
[Bip01_Neck]
3 165.484543 71.581718 0.000119 175.896118 1.177290 24.871183 180.302734
4 165.484543 71.581718 0.000119 175.896118 1.177290 24.871183 180.302734
[L_humerus]
3 -13.983130 -135.272980 -120.471481 170.940796 81.564224 -99.189163 181.680161
4 -13.983130 -135.272980 -120.471481 170.940796 81.564224 -99.189163 181.680161
[R_humerus]
3 -13.983309 -135.273102 125.287651 -159.666046 -68.957870 -101.166077 184.909012
4 -13.983309 -135.273102 125.287651 -159.666046 -68.957870 -101.166077 184.909012
[weapon_bone]
3 235.964890 -300.705902 0.000000 0.000000 -89.951546 -128.212341 382.234833
4 235.964890 -300.705902 0.000000 0.000000 -89.951546 -128.212341 382.234833
[Bip01_Head]
3 261.355835 108.959358 -2.864180 2.248029 5.843377 -62.458344 283.173492
4 261.355835 108.959366 -2.864175 2.248029 5.843377 -62.458344 283.173492
[eye_left_bone]
3 -24.626970 125.451866 -64.772606 0.000000 -90.000000 -99.840431 143.318359
4 -24.626970 125.451866 -64.772606 0.000000 -90.000000 -99.840431 143.318359
[eye_right_bone]
3 -24.626970 125.451866 64.327362 0.000000 -89.960434 80.159386 143.117676
4 -24.626970 125.451866 64.327362 0.000000 -89.960434 80.159386 143.117676
[L_forearm]
3 322.776093 0.000000 -0.000119 0.000471 0.002300 -66.859398 322.776093
4 322.776093 0.000000 -0.000119 0.000471 0.002300 -66.859398 322.776093
[L_front_hand]
3 241.149185 -0.042021 -3.300071 -178.667953 -1.835447 -27.422350 241.171753
4 241.149185 -0.042021 -3.300071 -178.667953 -1.835447 -27.422350 241.171753
[L_weapon_bone]
3 156.183838 0.000000 0.000000 0.002028 0.001182 29.501106 156.183838
4 156.183838 0.000000 0.000000 0.002126 0.000995 39.830204 156.183838
[L_front_hand01_01]
3 86.095154 20.947098 -0.655860 -0.345630 -0.486632 72.985954 88.609184
4 86.095154 20.947098 -0.655860 -0.358019 -0.483663 74.277168 88.609184
[L_front_hand02_01]
3 86.935165 -11.437475 24.513514 150.809296 -58.778587 -57.192558 91.046425
4 86.935165 -11.437475 24.513514 152.710815 -59.393673 -59.407352 91.046425
[L_front_hand03_01]
3 86.637497 -14.123976 -20.424902 -150.571686 56.997833 -58.742687 90.126129
4 86.637497 -14.123976 -20.424902 -152.345215 57.619305 -60.852303 90.126129
[L_front_hand01_02]
3 71.020905 -0.000179 0.000030 0.000334 -0.002323 -106.379379 71.020905
4 71.020905 -0.000179 0.000030 0.001534 0.001777 -8.378850 71.020905
[L_front_hand02_02]
3 71.020927 -0.000119 0.000060 0.000334 -0.002323 -106.379379 71.020927
4 71.020927 -0.000119 0.000060 0.001534 0.001777 -8.378850 71.020927
[L_front_hand03_02]
3 71.020905 -0.000060 0.000060 0.000334 -0.002323 -106.379379 71.020905
4 71.020905 -0.000060 0.000060 0.001534 0.001777 -8.378850 71.020905
[R_forearm]
3 322.776428 -0.000060 0.000030 0.199694 -0.075621 -69.903069 322.776428
4 322.776428 -0.000060 0.000030 0.199694 -0.075621 -69.903076 322.776428
[R_front_hand]
3 238.847015 -0.006795 2.210259 -1.531694 0.790216 -51.443054 238.857239
4 238.847015 -0.006795 2.210259 -1.531694 0.790216 -51.443054 238.857239
[R_weapon_bone]
3 155.664093 0.002503 -0.000030 0.003037 0.002080 -122.425827 155.664078
4 155.664093 0.002503 -0.000030 0.002838 0.002344 -132.705109 155.664078
[R_front_hand01_01]
3 87.624611 14.231146 22.918642 -151.019943 -58.847031 57.544685 91.683487
4 87.624611 14.231146 22.918642 -154.633499 -59.950619 61.746044 91.683487
[R_front_hand02_01]
3 89.356956 14.367283 -19.491137 151.211227 57.208401 59.740421 92.579636
4 89.356956 14.367283 -19.491137 154.602661 58.302849 63.744389 92.579636
[R_front_hand03_01]
3 87.286232 -22.307278 -0.143439 0.142368 -0.428417 -73.368439 90.091743
4 87.286232 -22.307278 -0.143439 0.162155 -0.423168 -75.767921 90.091743
[R_front_hand01_02]
3 71.020905 0.000060 0.000119 0.002323 -0.000334 106.381386 71.020905
4 71.020905 0.000060 0.000119 0.001777 0.001534 8.377220 71.020905
[R_front_hand02_02]
3 71.020844 -0.000030 -0.000119 0.002323 -0.000334 106.381386 71.020836
4 71.020844 -0.000030 -0.000119 0.001777 0.001534 8.377220 71.020836
[R_front_hand03_02]
3 71.020905 0.000000 0.000030 0.002323 -0.000334 106.381386 71.020905
4 71.020905 0.000000 0.000030 0.001777 0.001534 8.377220 71.020905
[null_rope01_connect]
3 328.732483 0.000000 -0.000238 0.000000 -89.649460 76.991867 328.732483
4 328.732483 0.000000 -0.000238 45.147968 -75.059410 48.591496 328.732483
[Rope1_Seg01]
3 0.000000 0.000000 0.000000 -136.807449 70.136101 55.945713 0.000000
4 0.000000 0.000000 0.000000 158.927078 58.940777 8.219261 0.000000
[Rope1_Seg02]
3 139.999863 -0.000179 0.000000 6.467560 -2.346210 -6.386746 139.999863
4 139.999863 -0.000179 0.000000 8.653526 -3.523278 -9.375167 139.999863
[Rope1_Seg03]
3 139.999924 0.000060 -0.000060 15.032574 -5.750293 -11.657607 139.999924
4 139.999924 0.000060 -0.000060 24.287706 -10.448827 -19.186684 139.999924
[Rope1_Seg04]
3 139.999924 -0.000060 -0.000119 36.790646 -18.225582 -22.858562 139.999924
4 139.999924 -0.000060 -0.000119 40.016369 -30.243654 -26.820166 139.999924
[Rope1_Seg05]
3 139.999832 0.000119 -0.000060 23.396217 -34.343441 -10.100529 139.999832
4 139.999832 0.000119 -0.000060 11.155956 -28.813173 -4.559972 139.999832
[Rope1_Seg06]
3 139.999954 0.000119 -0.000060 2.045116 -8.990211 1.081323 139.999954
4 139.999954 0.000119 -0.000060 1.279759 -9.213736 0.087100 139.999954
[Rope1_Seg07]
3 139.999985 0.000060 0.000000 0.692812 -4.137561 0.595264 139.999985
4 139.999985 0.000060 0.000000 0.324541 -4.302779 0.231983 139.999985
[Rope1_Seg09]
3 121.602913 0.000119 -0.000089 -89.793175 -1.359789 0.847147 121.602913
4 121.602913 0.000119 -0.000089 -89.793175 -1.359789 0.847147 121.602913
[L_mid_hand01]
3 103.859421 1.038730 8.195221 111.431305 -47.263851 -16.612017 104.187431
4 103.859421 1.038730 8.195221 111.431305 -47.263851 -16.612017 104.187431
[L_mid_hand02]
3 105.572853 -4.139662 -10.864139 -150.709808 35.166882 -45.161087 106.211075
4 105.572853 -4.139662 -10.864139 -150.709808 35.166882 -45.161087 106.211075
[L_mid_hand03]
3 104.641464 17.579376 -3.913581 -12.649597 13.975001 50.985863 106.179977
4 104.641464 17.579376 -3.913581 -12.649596 13.974999 50.985855 106.179977
[null_rope02_connect]
3 328.732849 0.000179 -0.000119 -130.470490 13.111758 -24.221542 328.732849
4 328.732849 0.000179 -0.000119 -131.223343 -0.019157 -41.121269 328.732849
[Rope2_Seg01]
3 -0.000027 0.000079 0.000105 81.291588 26.572653 14.848148 0.000135
4 -0.000022 0.000081 0.000101 84.920319 6.821131 5.547744 0.000131
[Rope2_Seg02]
3 139.999741 -0.000060 -0.000119 -1.279045 12.690529 -8.094393 139.999756
4 139.999741 -0.000060 -0.000119 -4.501408 9.551873 -11.752188 139.999756
[Rope2_Seg03]
3 140.000107 0.000030 0.000000 -2.219019 21.988249 -15.189358 140.000107
4 140.000107 0.000030 0.000000 -6.634074 22.293516 -25.705343 140.000107
[Rope2_Seg04]
3 139.999802 0.000000 -0.000060 -0.271437 28.555828 -19.175949 139.999802
4 139.999802 0.000000 -0.000060 1.712353 25.951054 -29.724014 139.999802
[Rope2_Seg05]
3 139.999985 -0.000060 0.000119 3.356644 12.607109 -7.498697 139.999985
4 139.999985 -0.000060 0.000119 11.381289 8.952263 -13.745989 139.999985
[Rope2_Seg06]
3 139.999893 -0.000030 -0.000119 4.781383 4.541224 -3.376019 139.999893
4 139.999893 -0.000030 -0.000119 8.176475 2.419206 -6.166748 139.999893
[Rope2_Seg07]
3 139.999893 0.000060 -0.000060 4.908418 2.333651 -2.076993 139.999893
4 139.999893 0.000060 -0.000060 5.599292 0.841563 -3.498234 139.999893
[Rope2_Seg09]
3 121.338966 0.000089 -0.000060 33.793236 -1.359788 -0.847141 121.338966
4 121.338966 0.000089 -0.000060 33.793236 -1.359788 -0.847141 121.338966
[R_mid_hand01]
3 104.680779 11.144459 -10.335981 -34.269650 35.095989 42.885235 105.778534
4 104.680779 11.144459 -10.335981 -34.269650 35.095989 42.885235 105.778534
[R_mid_hand02]
3 104.070427 2.443552 8.231699 68.449066 -47.537163 16.779839 104.424065
4 104.070427 2.443552 8.231699 68.449066 -47.537163 16.779839 104.424065
[R_mid_hand03]
3 106.028137 -11.221827 -5.996406 -171.106766 13.128626 -52.726494 106.788818
4 106.028137 -11.221827 -5.996406 -171.106766 13.128626 -52.726494 106.788818
[spine02]
3 129.756927 0.001550 0.000119 -0.245322 -4.052060 -4.355547 129.756927
4 129.756927 0.001550 0.000119 -0.245322 -4.052060 -4.355547 129.756927
[spine03]
3 78.613754 0.087128 -4.898789 0.369659 4.260735 -4.885721 78.766281
4 78.613754 0.087128 -4.898784 0.369659 4.260734 -4.885720 78.766289
[pelvis]
3 169.435242 0.051022 0.000000 -0.010031 -0.194709 -1.851389 169.435257
4 169.435242 0.051022 0.000000 -0.010044 -0.196355 -1.828306 169.435257
[null_rope03_connect]
3 -1.257226 -2.466202 137.391083 26.274721 -60.505749 99.050613 137.418976
4 -1.257226 -2.466202 137.391083 26.731882 -45.312069 103.202744 137.418976
[null_rope04_connect]
3 -1.259640 -2.480268 -137.844437 26.274721 -60.505749 99.050613 137.872513
4 -1.259640 -2.480268 -137.844437 26.731882 -45.312069 103.202744 137.872513
[Rope3_Seg01]
3 0.000000 0.000000 0.000000 -11.619226 -87.066689 -33.475109 0.000000
4 0.000000 0.000000 0.000000 -174.754150 -70.117783 136.953690 0.000000
[Rope3_Seg02]
3 139.999924 -0.000119 0.000060 1.173366 -22.339302 23.302084 139.999924
4 139.999924 -0.000119 0.000060 6.252157 -12.721615 17.122519 139.999924
[Rope3_Seg03]
3 139.999924 -0.000119 0.000119 -0.823775 -17.574579 17.096348 139.999924
4 139.999924 -0.000119 0.000119 2.917845 -10.654655 16.413820 139.999924
[Rope3_Seg04]
3 139.999924 0.000119 0.000000 -1.314225 -8.742609 13.236351 139.999924
4 139.999924 0.000119 0.000000 0.631900 -6.245786 12.140071 139.999924
[Rope3_Seg05]
3 139.999924 -0.000238 0.000060 -5.514385 -8.284270 22.839382 139.999924
4 139.999924 -0.000238 0.000060 -1.909229 -3.633555 21.557264 139.999924
[Rope3_Seg06]
3 139.999893 -0.000119 -0.000060 -7.326895 -7.368958 16.788013 139.999893
4 139.999893 -0.000119 -0.000060 -5.929459 -3.152529 21.164213 139.999893
[Rope3_Seg07]
3 139.999771 0.000060 -0.000119 -4.433786 -4.866369 7.675807 139.999771
4 139.999771 0.000060 -0.000119 -4.889985 -2.960829 10.093878 139.999771
[Rope3_Seg08]
3 139.999985 -0.000060 0.000000 -2.418920 -2.968260 3.999135 139.999985
4 139.999985 -0.000060 0.000000 -3.065160 -2.049906 5.328254 139.999985
[Rope3_Seg09]
3 90.185997 -0.000179 -0.000060 89.793228 -1.359877 -0.847183 90.185997
4 90.185997 -0.000179 -0.000060 89.793228 -1.359877 -0.847183 90.185997
[R_rear_hand01]
3 103.366196 -6.073594 -10.757982 -166.970291 21.129854 -46.704182 104.101845
4 103.366196 -6.073594 -10.757982 -166.970291 21.129850 -46.704182 104.101845
[R_rear_hand02]
3 100.509819 12.039542 -7.992327 -28.148869 27.804199 44.102722 101.543350
4 100.509819 12.039542 -7.992327 -28.148869 27.804199 44.102722 101.543350
[R_rear_hand03]
3 101.539970 5.215704 5.435467 81.628395 -47.127728 10.016968 101.819031
4 101.539970 5.215704 5.435467 81.628380 -47.127724 10.016966 101.819031
[Rope4_Seg01]
3 -0.000037 0.000000 -0.000012 -88.159332 -13.358956 -141.646179 0.000039
4 -0.000037 0.000000 -0.000018 -94.620895 1.090123 -150.650635 0.000041
[Rope4_Seg02]
3 139.999985 0.000060 0.000119 32.355442 42.868530 -24.821434 139.999985
4 139.999985 0.000060 0.000119 49.096851 36.124912 -8.762753 139.999985
[Rope4_Seg03]
3 139.999924 0.000000 -0.000238 21.649031 7.249000 -25.058451 139.999924
4 139.999924 0.000000 -0.000238 37.483925 8.856682 -25.619192 139.999924
[Rope4_Seg04]
3 139.999985 0.000000 0.000119 7.649842 1.778761 -11.344975 139.999985
4 139.999985 0.000000 0.000119 9.609981 -2.391376 -11.675927 139.999985
[Rope4_Seg05]
3 139.999802 -0.000060 -0.000119 8.233289 4.107518 -13.549461 139.999802
4 139.999802 -0.000060 -0.000119 8.216516 1.629362 -10.160046 139.999802
[Rope4_Seg06]
3 139.999924 0.000000 0.000060 6.692117 2.383364 -13.538031 139.999924
4 139.999924 0.000000 0.000060 7.562893 1.936295 -10.563622 139.999924
[Rope4_Seg07]
3 139.999802 0.000000 0.000000 3.144669 -0.139311 -7.860075 139.999802
4 139.999802 0.000000 0.000000 3.685632 -0.668581 -6.426322 139.999802
[Rope4_Seg08]
3 139.999924 0.000000 0.000119 0.095628 -0.350722 -4.822121 139.999924
4 139.999924 0.000000 0.000119 0.422788 -0.731001 -3.953533 139.999924
[Rope4_Seg09]
3 90.185791 0.000060 0.000060 -135.617828 2.228885 0.850567 90.185791
4 90.185791 0.000060 0.000060 -135.617828 2.228885 0.850567 90.185791
[L_rear_hand01]
3 101.696655 -8.392275 -7.654577 -27.705481 -28.251705 134.947800 102.329041
4 101.696655 -8.392275 -7.654577 -27.705481 -28.251705 134.947800 102.329041
[L_rear_hand02]
3 102.726799 -1.568258 5.773216 81.477219 48.065086 169.775513 102.900848
4 102.726799 -1.568258 5.773216 81.477219 48.065086 169.775513 102.900848
[L_rear_hand03]
3 104.552910 9.721220 -10.420293 -167.330078 -21.338425 -132.303940 105.519653
4 104.552910 9.721220 -10.420293 -167.330078 -21.338425 -132.303940 105.519653
